<svg xmlns="http://www.w3.org/2000/svg" viewBox="0 0 128 128" role="img" aria-labelledby="title desc">
  <title id="title">SuperLocalMemory mark</title>
  <desc id="desc">A local memory core represented by connected evidence nodes in a cyan and violet ring.</desc>
  <defs>
    <linearGradient id="slm-ring" x1="18" y1="18" x2="110" y2="110" gradientUnits="userSpaceOnUse">
      <stop stop-color="#22d3ee"/>
      <stop offset=".52" stop-color="#60a5fa"/>
      <stop offset="1" stop-color="#a78bfa"/>
    </linearGradient>
    <linearGradient id="slm-core" x1="39" y1="37" x2="91" y2="91" gradientUnits="userSpaceOnUse">
      <stop stop-color="#d9fbff"/>
      <stop offset="1" stop-color="#c4b5fd"/>
    </linearGradient>
  </defs>
  <circle cx="64" cy="64" r="58" fill="#07111f" stroke="url(#slm-ring)" stroke-width="4"/>
  <path d="M33 51c4-15 16-25 31-25 20 0 35 16 35 36 0 17-12 31-28 35" fill="none" stroke="url(#slm-ring)" stroke-linecap="round" stroke-width="4"/>
  <path d="M35 78c6 15 22 24 38 20 9-2 16-8 20-16" fill="none" stroke="url(#slm-ring)" stroke-linecap="round" stroke-width="4" opacity=".82"/>
  <g fill="none" stroke="url(#slm-ring)" stroke-linecap="round" stroke-linejoin="round" stroke-width="3.5">
    <path d="M43 55 58 45l14 10 13-8"/>
    <path d="M43 55v18l15 9 14-9 13 8"/>
    <path d="M58 45v37"/>
    <path d="M72 55v18"/>
  </g>
  <g fill="url(#slm-core)" stroke="#07111f" stroke-width="2">
    <circle cx="43" cy="55" r="6"/>
    <circle cx="58" cy="45" r="6"/>
    <circle cx="72" cy="55" r="6"/>
    <circle cx="85" cy="47" r="6"/>
    <circle cx="43" cy="73" r="6"/>
    <circle cx="58" cy="82" r="6"/>
    <circle cx="72" cy="73" r="6"/>
    <circle cx="85" cy="81" r="6"/>
  </g>
  <circle cx="64" cy="64" r="8" fill="url(#slm-ring)"/>
  <circle cx="64" cy="64" r="3" fill="#f8fafc"/>
</svg>
