<svg xmlns="http://www.w3.org/2000/svg" viewBox="0 0 620 128" role="img" aria-label="SuperLocalMemory">
  <defs>
    <linearGradient id="slm-type" x1="148" y1="30" x2="585" y2="96" gradientUnits="userSpaceOnUse">
      <stop stop-color="#ecfeff"/><stop offset="1" stop-color="#ddd6fe"/>
    </linearGradient>
  </defs>
  <g transform="translate(0 0)">
    <circle cx="64" cy="64" r="58" fill="#07111f" stroke="#22d3ee" stroke-width="4"/>
    <path d="M33 51c4-15 16-25 31-25 20 0 35 16 35 36 0 17-12 31-28 35M35 78c6 15 22 24 38 20 9-2 16-8 20-16" fill="none" stroke="#8bcbff" stroke-linecap="round" stroke-width="4"/>
    <g fill="none" stroke="#8bcbff" stroke-linecap="round" stroke-linejoin="round" stroke-width="3.5"><path d="M43 55 58 45l14 10 13-8M43 55v18l15 9 14-9 13 8M58 45v37M72 55v18"/></g>
    <g fill="#e0f2fe" stroke="#07111f" stroke-width="2"><circle cx="43" cy="55" r="6"/><circle cx="58" cy="45" r="6"/><circle cx="72" cy="55" r="6"/><circle cx="85" cy="47" r="6"/><circle cx="43" cy="73" r="6"/><circle cx="58" cy="82" r="6"/><circle cx="72" cy="73" r="6"/><circle cx="85" cy="81" r="6"/></g>
    <circle cx="64" cy="64" r="8" fill="#22d3ee"/><circle cx="64" cy="64" r="3" fill="#f8fafc"/>
  </g>
  <text x="148" y="77" fill="url(#slm-type)" font-family="Inter, ui-sans-serif, system-ui, -apple-system, BlinkMacSystemFont, 'Segoe UI', sans-serif" font-size="45" font-weight="700" letter-spacing="-2">SuperLocalMemory</text>
</svg>
